<svg width="1440" height="1024" viewBox="0 0 1440 1024" fill="none" xmlns="http://www.w3.org/2000/svg">
<rect width="1440" height="1024" fill="white"/>
<g filter="url(#filter0_d_127_1615)">
<rect x="193" y="171" width="1054" height="684" fill="#D9D9D9"/>
</g>
<g clip-path="url(#clip0_127_1615)" filter="url(#filter1_d_127_1615)">
<rect width="1053" height="682" transform="translate(193 171)" fill="white"/>
<path d="M673.084 384V314.182H687.845V371.83H717.777V384H673.084ZM750.939 385.023C745.643 385.023 741.064 383.898 737.2 381.648C733.359 379.375 730.393 376.216 728.303 372.17C726.212 368.102 725.166 363.386 725.166 358.023C725.166 352.614 726.212 347.886 728.303 343.841C730.393 339.773 733.359 336.614 737.2 334.364C741.064 332.091 745.643 330.955 750.939 330.955C756.234 330.955 760.803 332.091 764.643 334.364C768.507 336.614 771.484 339.773 773.575 343.841C775.666 347.886 776.712 352.614 776.712 358.023C776.712 363.386 775.666 368.102 773.575 372.17C771.484 376.216 768.507 379.375 764.643 381.648C760.803 383.898 756.234 385.023 750.939 385.023ZM751.007 373.773C753.416 373.773 755.428 373.091 757.041 371.727C758.655 370.341 759.871 368.455 760.689 366.068C761.53 363.682 761.95 360.966 761.95 357.92C761.95 354.875 761.53 352.159 760.689 349.773C759.871 347.386 758.655 345.5 757.041 344.114C755.428 342.727 753.416 342.034 751.007 342.034C748.575 342.034 746.53 342.727 744.871 344.114C743.234 345.5 741.996 347.386 741.155 349.773C740.337 352.159 739.928 354.875 739.928 357.92C739.928 360.966 740.337 363.682 741.155 366.068C741.996 368.455 743.234 370.341 744.871 371.727C746.53 373.091 748.575 373.773 751.007 373.773ZM809.746 404.727C805.041 404.727 801.007 404.08 797.643 402.784C794.303 401.511 791.643 399.773 789.666 397.568C787.689 395.364 786.405 392.886 785.814 390.136L799.246 388.33C799.655 389.375 800.303 390.352 801.189 391.261C802.075 392.17 803.246 392.898 804.7 393.443C806.178 394.011 807.973 394.295 810.087 394.295C813.246 394.295 815.848 393.523 817.893 391.977C819.962 390.455 820.996 387.898 820.996 384.307V374.727H820.382C819.746 376.182 818.791 377.557 817.518 378.852C816.246 380.148 814.609 381.205 812.609 382.023C810.609 382.841 808.223 383.25 805.45 383.25C801.518 383.25 797.939 382.341 794.712 380.523C791.507 378.682 788.95 375.875 787.041 372.102C785.155 368.307 784.212 363.511 784.212 357.716C784.212 351.784 785.178 346.83 787.109 342.852C789.041 338.875 791.609 335.898 794.814 333.92C798.041 331.943 801.575 330.955 805.416 330.955C808.348 330.955 810.803 331.455 812.78 332.455C814.757 333.432 816.348 334.659 817.553 336.136C818.78 337.591 819.723 339.023 820.382 340.432H820.928V331.636H835.348V384.511C835.348 388.966 834.257 392.693 832.075 395.693C829.893 398.693 826.871 400.943 823.007 402.443C819.166 403.966 814.746 404.727 809.746 404.727ZM810.053 372.341C812.393 372.341 814.371 371.761 815.984 370.602C817.621 369.42 818.871 367.739 819.734 365.557C820.621 363.352 821.064 360.716 821.064 357.648C821.064 354.58 820.632 351.92 819.768 349.67C818.905 347.398 817.655 345.636 816.018 344.386C814.382 343.136 812.393 342.511 810.053 342.511C807.666 342.511 805.655 343.159 804.018 344.455C802.382 345.727 801.143 347.5 800.303 349.773C799.462 352.045 799.041 354.67 799.041 357.648C799.041 360.67 799.462 363.284 800.303 365.489C801.166 367.67 802.405 369.364 804.018 370.568C805.655 371.75 807.666 372.341 810.053 372.341ZM846.905 384V331.636H861.428V384H846.905ZM854.2 324.886C852.041 324.886 850.189 324.17 848.643 322.739C847.121 321.284 846.359 319.545 846.359 317.523C846.359 315.523 847.121 313.807 848.643 312.375C850.189 310.92 852.041 310.193 854.2 310.193C856.359 310.193 858.2 310.92 859.723 312.375C861.268 313.807 862.041 315.523 862.041 317.523C862.041 319.545 861.268 321.284 859.723 322.739C858.2 324.17 856.359 324.886 854.2 324.886ZM887.584 353.727V384H873.061V331.636H886.902V340.875H887.516C888.675 337.83 890.618 335.42 893.345 333.648C896.072 331.852 899.379 330.955 903.266 330.955C906.902 330.955 910.072 331.75 912.777 333.341C915.482 334.932 917.584 337.205 919.084 340.159C920.584 343.091 921.334 346.591 921.334 350.659V384H906.811V353.25C906.834 350.045 906.016 347.545 904.357 345.75C902.697 343.932 900.413 343.023 897.504 343.023C895.55 343.023 893.822 343.443 892.322 344.284C890.845 345.125 889.686 346.352 888.845 347.966C888.027 349.557 887.607 351.477 887.584 353.727Z" fill="black"/>
<mask id="path-3-inside-1_127_1615" fill="white">
<path d="M666.654 433H1056.69V508H666.654V433Z"/>
</mask>
<path d="M666.654 433H1056.69V508H666.654V433Z" fill="white"/>
<path d="M1056.69 503H666.654V513H1056.69V503Z" fill="black" mask="url(#path-3-inside-1_127_1615)"/>
<path d="M677.991 481.455H679.753V491.085C679.753 492.08 679.518 492.967 679.049 493.749C678.585 494.525 677.93 495.138 677.082 495.588C676.235 496.033 675.24 496.256 674.099 496.256C672.958 496.256 671.964 496.033 671.116 495.588C670.269 495.138 669.61 494.525 669.142 493.749C668.678 492.967 668.446 492.08 668.446 491.085V481.455H670.207V490.943C670.207 491.653 670.363 492.286 670.676 492.839C670.988 493.389 671.433 493.822 672.011 494.139C672.593 494.452 673.289 494.608 674.099 494.608C674.909 494.608 675.605 494.452 676.187 494.139C676.77 493.822 677.215 493.389 677.522 492.839C677.835 492.286 677.991 491.653 677.991 490.943V481.455ZM691.224 485.091C691.139 484.371 690.794 483.812 690.188 483.415C689.581 483.017 688.838 482.818 687.957 482.818C687.313 482.818 686.75 482.922 686.267 483.131C685.789 483.339 685.415 483.625 685.145 483.99C684.88 484.355 684.747 484.769 684.747 485.233C684.747 485.621 684.84 485.955 685.024 486.234C685.214 486.509 685.455 486.739 685.749 486.923C686.042 487.103 686.35 487.252 686.672 487.371C686.994 487.484 687.29 487.577 687.56 487.648L689.037 488.045C689.416 488.145 689.837 488.282 690.301 488.457C690.77 488.633 691.217 488.872 691.643 489.175C692.074 489.473 692.429 489.857 692.709 490.325C692.988 490.794 693.128 491.369 693.128 492.051C693.128 492.837 692.922 493.547 692.51 494.182C692.103 494.816 691.506 495.321 690.72 495.695C689.939 496.069 688.99 496.256 687.872 496.256C686.831 496.256 685.929 496.088 685.166 495.751C684.409 495.415 683.812 494.946 683.376 494.345C682.946 493.744 682.702 493.045 682.645 492.25H684.463C684.51 492.799 684.695 493.254 685.017 493.614C685.344 493.969 685.756 494.234 686.253 494.409C686.755 494.58 687.295 494.665 687.872 494.665C688.545 494.665 689.148 494.556 689.683 494.338C690.218 494.116 690.642 493.808 690.955 493.415C691.267 493.017 691.423 492.553 691.423 492.023C691.423 491.54 691.288 491.147 691.018 490.844C690.749 490.541 690.393 490.295 689.953 490.105C689.513 489.916 689.037 489.75 688.526 489.608L686.736 489.097C685.599 488.77 684.7 488.304 684.037 487.697C683.374 487.091 683.043 486.298 683.043 485.318C683.043 484.504 683.263 483.794 683.703 483.188C684.148 482.577 684.745 482.103 685.493 481.767C686.246 481.426 687.086 481.256 688.014 481.256C688.952 481.256 689.785 481.424 690.514 481.76C691.243 482.091 691.821 482.546 692.247 483.124C692.678 483.701 692.905 484.357 692.929 485.091H691.224ZM705.569 481.455H707.331V491.085C707.331 492.08 707.096 492.967 706.628 493.749C706.163 494.525 705.508 495.138 704.66 495.588C703.813 496.033 702.818 496.256 701.677 496.256C700.536 496.256 699.542 496.033 698.694 495.588C697.847 495.138 697.189 494.525 696.72 493.749C696.256 492.967 696.024 492.08 696.024 491.085V481.455H697.785V490.943C697.785 491.653 697.941 492.286 698.254 492.839C698.566 493.389 699.012 493.822 699.589 494.139C700.172 494.452 700.868 494.608 701.677 494.608C702.487 494.608 703.183 494.452 703.765 494.139C704.348 493.822 704.793 493.389 705.101 492.839C705.413 492.286 705.569 491.653 705.569 490.943V481.455ZM711.445 496H709.598L714.939 481.455H716.757L722.098 496H720.251L715.905 483.756H715.791L711.445 496ZM712.126 490.318H719.57V491.881H712.126V490.318ZM724.364 496V481.455H729.278C730.415 481.455 731.348 481.649 732.077 482.037C732.806 482.42 733.346 482.948 733.696 483.621C734.046 484.293 734.222 485.058 734.222 485.915C734.222 486.772 734.046 487.532 733.696 488.195C733.346 488.857 732.808 489.378 732.084 489.757C731.359 490.131 730.434 490.318 729.307 490.318H725.33V488.727H729.25C730.027 488.727 730.652 488.614 731.125 488.386C731.603 488.159 731.949 487.837 732.162 487.42C732.38 486.999 732.489 486.497 732.489 485.915C732.489 485.332 732.38 484.823 732.162 484.388C731.944 483.952 731.596 483.616 731.118 483.379C730.64 483.138 730.008 483.017 729.222 483.017H726.125V496H724.364ZM731.21 489.466L734.79 496H732.744L729.222 489.466H731.21ZM738.918 481.455V496H737.157V481.455H738.918ZM754.722 488.727C754.722 490.261 754.445 491.587 753.891 492.705C753.337 493.822 752.577 494.684 751.612 495.29C750.646 495.896 749.542 496.199 748.302 496.199C747.061 496.199 745.958 495.896 744.992 495.29C744.026 494.684 743.266 493.822 742.712 492.705C742.158 491.587 741.881 490.261 741.881 488.727C741.881 487.193 742.158 485.867 742.712 484.75C743.266 483.633 744.026 482.771 744.992 482.165C745.958 481.559 747.061 481.256 748.302 481.256C749.542 481.256 750.646 481.559 751.612 482.165C752.577 482.771 753.337 483.633 753.891 484.75C754.445 485.867 754.722 487.193 754.722 488.727ZM753.018 488.727C753.018 487.468 752.807 486.405 752.386 485.538C751.969 484.672 751.403 484.016 750.688 483.571C749.978 483.126 749.183 482.903 748.302 482.903C747.421 482.903 746.623 483.126 745.908 483.571C745.198 484.016 744.632 484.672 744.211 485.538C743.794 486.405 743.586 487.468 743.586 488.727C743.586 489.987 743.794 491.05 744.211 491.916C744.632 492.783 745.198 493.438 745.908 493.884C746.623 494.329 747.421 494.551 748.302 494.551C749.183 494.551 749.978 494.329 750.688 493.884C751.403 493.438 751.969 492.783 752.386 491.916C752.807 491.05 753.018 489.987 753.018 488.727Z" fill="#5E5E5E"/>
<mask id="path-6-inside-2_127_1615" fill="white">
<path d="M667 580H1058.94V661H667V580Z"/>
</mask>
<path d="M667 580H1058.94V661H667V580Z" fill="white"/>
<path d="M1058.94 656H667V666H1058.94V656Z" fill="black" mask="url(#path-6-inside-2_127_1615)"/>
<path d="M680.091 641H678.33C678.225 640.493 678.043 640.048 677.783 639.665C677.527 639.281 677.215 638.959 676.845 638.699C676.481 638.434 676.076 638.235 675.631 638.102C675.186 637.97 674.722 637.903 674.239 637.903C673.358 637.903 672.56 638.126 671.845 638.571C671.135 639.016 670.569 639.672 670.148 640.538C669.731 641.405 669.523 642.468 669.523 643.727C669.523 644.987 669.731 646.05 670.148 646.916C670.569 647.783 671.135 648.438 671.845 648.884C672.56 649.329 673.358 649.551 674.239 649.551C674.722 649.551 675.186 649.485 675.631 649.352C676.076 649.22 676.481 649.023 676.845 648.763C677.215 648.498 677.527 648.173 677.783 647.79C678.043 647.402 678.225 646.956 678.33 646.455H680.091C679.958 647.198 679.717 647.863 679.367 648.45C679.016 649.037 678.581 649.537 678.06 649.949C677.539 650.356 676.954 650.666 676.305 650.879C675.661 651.092 674.973 651.199 674.239 651.199C672.998 651.199 671.895 650.896 670.929 650.29C669.963 649.684 669.203 648.822 668.649 647.705C668.095 646.587 667.818 645.261 667.818 643.727C667.818 642.193 668.095 640.867 668.649 639.75C669.203 638.633 669.963 637.771 670.929 637.165C671.895 636.559 672.998 636.256 674.239 636.256C674.973 636.256 675.661 636.362 676.305 636.575C676.954 636.788 677.539 637.101 678.06 637.513C678.581 637.92 679.016 638.417 679.367 639.004C679.717 639.587 679.958 640.252 680.091 641ZM695.21 643.727C695.21 645.261 694.933 646.587 694.379 647.705C693.825 648.822 693.065 649.684 692.099 650.29C691.133 650.896 690.03 651.199 688.789 651.199C687.549 651.199 686.446 650.896 685.48 650.29C684.514 649.684 683.754 648.822 683.2 647.705C682.646 646.587 682.369 645.261 682.369 643.727C682.369 642.193 682.646 640.867 683.2 639.75C683.754 638.633 684.514 637.771 685.48 637.165C686.446 636.559 687.549 636.256 688.789 636.256C690.03 636.256 691.133 636.559 692.099 637.165C693.065 637.771 693.825 638.633 694.379 639.75C694.933 640.867 695.21 642.193 695.21 643.727ZM693.505 643.727C693.505 642.468 693.295 641.405 692.873 640.538C692.457 639.672 691.891 639.016 691.176 638.571C690.466 638.126 689.67 637.903 688.789 637.903C687.909 637.903 687.111 638.126 686.396 638.571C685.686 639.016 685.12 639.672 684.699 640.538C684.282 641.405 684.074 642.468 684.074 643.727C684.074 644.987 684.282 646.05 684.699 646.916C685.12 647.783 685.686 648.438 686.396 648.884C687.111 649.329 687.909 649.551 688.789 649.551C689.67 649.551 690.466 649.329 691.176 648.884C691.891 648.438 692.457 647.783 692.873 646.916C693.295 646.05 693.505 644.987 693.505 643.727ZM709.706 636.455V651H708.001L700.075 639.58H699.933V651H698.172V636.455H699.876L707.831 647.903H707.973V636.455H709.706ZM712.435 638.017V636.455H723.344V638.017H718.77V651H717.009V638.017H712.435ZM726.062 651V636.455H730.977C732.113 636.455 733.046 636.649 733.775 637.037C734.504 637.42 735.044 637.948 735.395 638.621C735.745 639.293 735.92 640.058 735.92 640.915C735.92 641.772 735.745 642.532 735.395 643.195C735.044 643.857 734.507 644.378 733.782 644.757C733.058 645.131 732.132 645.318 731.005 645.318H727.028V643.727H730.949C731.725 643.727 732.35 643.614 732.824 643.386C733.302 643.159 733.647 642.837 733.86 642.42C734.078 641.999 734.187 641.497 734.187 640.915C734.187 640.332 734.078 639.823 733.86 639.388C733.643 638.952 733.295 638.616 732.816 638.379C732.338 638.138 731.706 638.017 730.92 638.017H727.824V651H726.062ZM732.909 644.466L736.488 651H734.443L730.92 644.466H732.909ZM739.452 651H737.605L742.946 636.455H744.764L750.105 651H748.259L743.912 638.756H743.798L739.452 651ZM740.134 645.318H747.577V646.881H740.134V645.318ZM760.325 640.091C760.24 639.371 759.894 638.812 759.288 638.415C758.682 638.017 757.939 637.818 757.058 637.818C756.414 637.818 755.851 637.922 755.368 638.131C754.89 638.339 754.516 638.625 754.246 638.99C753.981 639.355 753.848 639.769 753.848 640.233C753.848 640.621 753.94 640.955 754.125 641.234C754.314 641.509 754.556 641.739 754.849 641.923C755.143 642.103 755.451 642.252 755.773 642.371C756.095 642.484 756.391 642.577 756.661 642.648L758.138 643.045C758.517 643.145 758.938 643.282 759.402 643.457C759.871 643.633 760.318 643.872 760.744 644.175C761.175 644.473 761.53 644.857 761.81 645.325C762.089 645.794 762.229 646.369 762.229 647.051C762.229 647.837 762.023 648.547 761.611 649.182C761.204 649.816 760.607 650.321 759.821 650.695C759.04 651.069 758.09 651.256 756.973 651.256C755.931 651.256 755.029 651.088 754.267 650.751C753.51 650.415 752.913 649.946 752.477 649.345C752.046 648.744 751.803 648.045 751.746 647.25H753.564C753.611 647.799 753.796 648.254 754.118 648.614C754.445 648.969 754.857 649.234 755.354 649.409C755.856 649.58 756.395 649.665 756.973 649.665C757.645 649.665 758.249 649.556 758.784 649.338C759.319 649.116 759.743 648.808 760.055 648.415C760.368 648.017 760.524 647.553 760.524 647.023C760.524 646.54 760.389 646.147 760.119 645.844C759.849 645.541 759.494 645.295 759.054 645.105C758.614 644.916 758.138 644.75 757.626 644.608L755.837 644.097C754.7 643.77 753.801 643.304 753.138 642.697C752.475 642.091 752.143 641.298 752.143 640.318C752.143 639.504 752.364 638.794 752.804 638.188C753.249 637.577 753.846 637.103 754.594 636.767C755.347 636.426 756.187 636.256 757.115 636.256C758.053 636.256 758.886 636.424 759.615 636.76C760.344 637.091 760.922 637.546 761.348 638.124C761.779 638.701 762.006 639.357 762.03 640.091H760.325ZM765.125 651V636.455H773.903V638.017H766.886V642.932H773.449V644.494H766.886V649.438H774.017V651H765.125ZM788.612 636.455V651H786.907L778.981 639.58H778.839V651H777.078V636.455H778.782L786.737 647.903H786.879V636.455H788.612ZM780.657 635.148L779.351 635.091C779.351 634.366 779.556 633.775 779.968 633.315C780.385 632.851 780.899 632.619 781.51 632.619C781.78 632.619 782.019 632.667 782.227 632.761C782.435 632.851 782.634 632.955 782.824 633.074C783.013 633.192 783.207 633.299 783.406 633.393C783.61 633.483 783.839 633.528 784.095 633.528C784.365 633.528 784.592 633.424 784.777 633.216C784.966 633.003 785.061 632.747 785.061 632.449L786.339 632.562C786.339 633.301 786.131 633.888 785.714 634.324C785.302 634.759 784.791 634.977 784.18 634.977C783.853 634.977 783.583 634.932 783.37 634.842C783.157 634.748 782.968 634.641 782.802 634.523C782.637 634.404 782.461 634.3 782.277 634.21C782.092 634.116 781.865 634.068 781.595 634.068C781.325 634.068 781.1 634.175 780.92 634.388C780.745 634.596 780.657 634.849 780.657 635.148ZM792.733 651H790.886L796.227 636.455H798.045L803.386 651H801.54L797.193 638.756H797.08L792.733 651ZM793.415 645.318H800.858V646.881H793.415V645.318Z" fill="#5E5E5E"/>
<rect x="196" y="171" width="436" height="1024" fill="#EEEEEE"/>
<path d="M214.045 661V614.455H232.682C236.106 614.455 238.962 614.962 241.25 615.977C243.538 616.992 245.258 618.402 246.409 620.205C247.561 621.992 248.136 624.053 248.136 626.386C248.136 628.205 247.773 629.803 247.045 631.182C246.318 632.545 245.318 633.667 244.045 634.545C242.788 635.409 241.348 636.023 239.727 636.386V636.841C241.5 636.917 243.159 637.417 244.705 638.341C246.265 639.265 247.53 640.561 248.5 642.227C249.47 643.879 249.955 645.848 249.955 648.136C249.955 650.606 249.341 652.811 248.114 654.75C246.902 656.674 245.106 658.197 242.727 659.318C240.348 660.439 237.417 661 233.932 661H214.045ZM223.886 652.955H231.909C234.652 652.955 236.652 652.432 237.909 651.386C239.167 650.326 239.795 648.917 239.795 647.159C239.795 645.871 239.485 644.735 238.864 643.75C238.242 642.765 237.356 641.992 236.205 641.432C235.068 640.871 233.712 640.591 232.136 640.591H223.886V652.955ZM223.886 633.932H231.182C232.53 633.932 233.727 633.697 234.773 633.227C235.833 632.742 236.667 632.061 237.273 631.182C237.894 630.303 238.205 629.25 238.205 628.023C238.205 626.341 237.606 624.985 236.409 623.955C235.227 622.924 233.545 622.409 231.364 622.409H223.886V633.932ZM266.199 614.455V661H256.358V614.455H266.199ZM274.295 661V614.455H305.659V622.568H284.136V633.659H304.045V641.773H284.136V652.886H305.75V661H274.295ZM352.415 614.455V661H343.915L323.665 631.705H323.324V661H313.483V614.455H322.119L342.21 643.727H342.619V614.455H352.415ZM368.955 614.455L380.205 649.818H380.636L391.909 614.455H402.818L386.773 661H374.091L358.023 614.455H368.955ZM408.42 661V614.455H439.784V622.568H418.261V633.659H438.17V641.773H418.261V652.886H439.875V661H408.42ZM486.54 614.455V661H478.04L457.79 631.705H457.449V661H447.608V614.455H456.244L476.335 643.727H476.744V614.455H486.54ZM504.511 614.455V661H494.67V614.455H504.511ZM529.108 661H512.608V614.455H529.244C533.926 614.455 537.956 615.386 541.335 617.25C544.714 619.098 547.313 621.758 549.131 625.227C550.964 628.697 551.881 632.848 551.881 637.682C551.881 642.53 550.964 646.697 549.131 650.182C547.313 653.667 544.699 656.341 541.29 658.205C537.896 660.068 533.835 661 529.108 661ZM522.449 652.568H528.699C531.608 652.568 534.055 652.053 536.04 651.023C538.04 649.977 539.54 648.364 540.54 646.182C541.555 643.985 542.062 641.152 542.062 637.682C542.062 634.242 541.555 631.432 540.54 629.25C539.54 627.068 538.047 625.462 536.062 624.432C534.078 623.402 531.631 622.886 528.722 622.886H522.449V652.568ZM564.568 661H554.023L570.091 614.455H582.773L598.818 661H588.273L576.614 625.091H576.25L564.568 661ZM563.909 642.705H588.818V650.386H563.909V642.705ZM609.898 661.591C608.398 661.591 607.11 661.061 606.034 660C604.973 658.924 604.443 657.636 604.443 656.136C604.443 654.652 604.973 653.379 606.034 652.318C607.11 651.258 608.398 650.727 609.898 650.727C611.352 650.727 612.625 651.258 613.716 652.318C614.807 653.379 615.352 654.652 615.352 656.136C615.352 657.136 615.095 658.053 614.58 658.886C614.08 659.705 613.42 660.364 612.602 660.864C611.784 661.348 610.883 661.591 609.898 661.591Z" fill="black"/>
<g clip-path="url(#clip1_127_1615)">
<path d="M507.75 327.375H320.25C304.717 327.375 292.125 339.967 292.125 355.5V505.5C292.125 521.033 304.717 533.625 320.25 533.625H507.75C523.283 533.625 535.875 521.033 535.875 505.5V355.5C535.875 339.967 523.283 327.375 507.75 327.375Z" stroke="#8F8F8F" stroke-width="20" stroke-linejoin="round"/>
<path d="M414 364.875C424.355 364.875 432.75 356.48 432.75 346.125C432.75 335.77 424.355 327.375 414 327.375C403.645 327.375 395.25 335.77 395.25 346.125C395.25 356.48 403.645 364.875 414 364.875Z" stroke="#8F8F8F" stroke-width="20" stroke-miterlimit="10"/>
<path d="M442.125 439.752L389.004 386.73C385.624 383.351 381.08 381.39 376.303 381.248C371.525 381.107 366.873 382.795 363.299 385.969L292.125 449.25M395.25 496.125L467.52 423.855C470.825 420.544 475.248 418.587 479.922 418.371C484.596 418.154 489.182 419.692 492.779 422.684L535.875 458.625" stroke="#8F8F8F" stroke-width="20" stroke-linecap="round" stroke-linejoin="round"/>
</g>
<rect x="1119.5" y="764.5" width="80" height="47" rx="4.5" fill="#5E5BFF"/>
<rect x="1119.5" y="764.5" width="80" height="47" rx="4.5" stroke="#5E5BFF"/>
<path d="M1135.49 793V782.818H1141.63V783.912H1136.72V787.352H1141.31V788.446H1136.72V791.906H1141.71V793H1135.49ZM1151.93 782.818V793H1150.74L1145.19 785.006H1145.09V793H1143.86V782.818H1145.05L1150.62 790.832H1150.72V782.818H1151.93ZM1154.81 782.818L1157.84 791.389H1157.96L1160.98 782.818H1162.27L1158.53 793H1157.26L1153.52 782.818H1154.81ZM1165.09 782.818V793H1163.86V782.818H1165.09ZM1167.98 793H1166.69L1170.43 782.818H1171.7L1175.44 793H1174.14L1171.1 784.429H1171.02L1167.98 793ZM1168.46 789.023H1173.67V790.116H1168.46V789.023ZM1177.02 793V782.818H1180.46C1181.26 782.818 1181.91 782.954 1182.42 783.226C1182.93 783.494 1183.31 783.864 1183.56 784.335C1183.8 784.805 1183.92 785.34 1183.92 785.94C1183.92 786.54 1183.8 787.072 1183.56 787.536C1183.31 788 1182.93 788.365 1182.43 788.63C1181.92 788.892 1181.27 789.023 1180.48 789.023H1177.7V787.909H1180.44C1180.99 787.909 1181.42 787.83 1181.76 787.67C1182.09 787.511 1182.33 787.286 1182.48 786.994C1182.63 786.699 1182.71 786.348 1182.71 785.94C1182.71 785.533 1182.63 785.176 1182.48 784.871C1182.33 784.567 1182.09 784.331 1181.75 784.165C1181.42 783.996 1180.97 783.912 1180.42 783.912H1178.26V793H1177.02ZM1181.82 788.426L1184.32 793H1182.89L1180.42 788.426H1181.82Z" fill="white"/>
</g>
<defs>
<filter id="filter0_d_127_1615" x="193" y="171" width="1064" height="694" filterUnits="userSpaceOnUse" color-interpolation-filters="sRGB">
<feFlood flood-opacity="0" result="BackgroundImageFix"/>
<feColorMatrix in="SourceAlpha" type="matrix" values="0 0 0 0 0 0 0 0 0 0 0 0 0 0 0 0 0 0 127 0" result="hardAlpha"/>
<feOffset dx="5" dy="5"/>
<feGaussianBlur stdDeviation="2.5"/>
<feComposite in2="hardAlpha" operator="out"/>
<feColorMatrix type="matrix" values="0 0 0 0 0 0 0 0 0 0 0 0 0 0 0 0 0 0 0.25 0"/>
<feBlend mode="normal" in2="BackgroundImageFix" result="effect1_dropShadow_127_1615"/>
<feBlend mode="normal" in="SourceGraphic" in2="effect1_dropShadow_127_1615" result="shape"/>
</filter>
<filter id="filter1_d_127_1615" x="189" y="171" width="1061" height="690" filterUnits="userSpaceOnUse" color-interpolation-filters="sRGB">
<feFlood flood-opacity="0" result="BackgroundImageFix"/>
<feColorMatrix in="SourceAlpha" type="matrix" values="0 0 0 0 0 0 0 0 0 0 0 0 0 0 0 0 0 0 127 0" result="hardAlpha"/>
<feOffset dy="4"/>
<feGaussianBlur stdDeviation="2"/>
<feComposite in2="hardAlpha" operator="out"/>
<feColorMatrix type="matrix" values="0 0 0 0 0 0 0 0 0 0 0 0 0 0 0 0 0 0 0.25 0"/>
<feBlend mode="normal" in2="BackgroundImageFix" result="effect1_dropShadow_127_1615"/>
<feBlend mode="normal" in="SourceGraphic" in2="effect1_dropShadow_127_1615" result="shape"/>
</filter>
<clipPath id="clip0_127_1615">
<rect width="1053" height="682" fill="white" transform="translate(193 171)"/>
</clipPath>
<clipPath id="clip1_127_1615">
<rect width="300" height="300" fill="white" transform="translate(264 243)"/>
</clipPath>
</defs>
</svg>
