<svg width="547" height="354" viewBox="0 0 547 354" fill="none" xmlns="http://www.w3.org/2000/svg">
<path d="M375.283 68.8639C375.283 68.8639 216.919 -31.6673 45.187 80.6494C210.177 -68.5261 375.283 68.8639 375.283 68.8639Z" fill="#769CBA"/>
<path d="M182.672 79.7808C182.672 79.7808 357.637 145.37 501.345 0C371.854 180.033 182.672 79.7808 182.672 79.7808Z" fill="#D0DCE7"/>
<path d="M494.833 206.127C486.341 201.908 479.127 196.024 479.127 185.691C479.127 174.075 488.346 157.771 515.598 157.771C518.672 157.771 533.836 160.015 535.472 160.015C540.596 160.627 540.596 162.866 540.596 166.124L539.78 178.153C539.78 178.964 539.368 181.412 537.318 181.412C535.885 181.412 534.86 181.004 533.631 177.134C532.397 173.258 526.87 157.981 513.139 157.981C504.328 157.981 496.747 167.354 496.747 174.687C496.747 182.841 501.254 184.671 521.949 193.233C524.864 194.511 529.565 196.466 534.057 199.592C520.897 201.704 507.987 204.52 494.833 206.127Z" fill="#D0DCE7"/>
<path d="M328.385 173.876V206.312C321.709 205.392 315.111 204.014 308.504 202.665V172.857C308.504 170.205 306.869 168.986 303.793 169.185C302.157 169.185 300.719 169.389 299.082 169.389C298.058 169.389 295.6 169.389 295.6 167.151C295.6 165.798 296.107 165.087 297.013 164.45C298.231 164.111 299.162 164.325 299.968 164.296C312.763 163.869 323.146 153.978 323.146 141.247C323.135 139.879 323.807 138.844 325.807 138.834C327.836 138.824 328.385 139.844 328.385 143.102V156.957C328.385 160.833 327.435 168.121 331.723 167.733C342.076 166.803 346.076 158.822 351.334 158.822C352.975 158.822 354.408 161.648 353.996 165.314C353.588 168.985 352.975 169.597 350.309 169.597C346.826 169.597 342.11 169.184 332.274 169.184C328.793 169.184 328.385 169.597 328.385 173.876Z" fill="#D0DCE7"/>
<path d="M249.012 159.601V169.765C249.012 170.984 249.012 172.611 250.24 172.446C250.857 172.446 251.882 171.223 252.081 170.814C252.494 170.202 262.533 158.585 274.418 158.585C281.796 158.585 289.173 162.659 289.173 170.814C289.173 179.172 281.796 182.431 276.672 182.431C272.164 182.431 269.294 180.798 266.02 177.132C262.532 173.257 262.025 167.984 257.533 168.252C249.722 168.724 249.623 175.909 249.623 192.823V201.096C242.987 202.339 236.389 203.817 229.748 205.026V192.335C229.748 179.525 227.087 179.117 219.297 178.708C218.685 178.708 216.635 178.708 216.635 176.475C216.635 175.048 217.76 173.639 219.849 173.356C221.555 173.212 221.899 173.257 221.899 173.257C231.779 173.257 240.216 167.103 243.55 158.442C244.51 156.094 246.256 156.139 246.758 156.139C248.807 156.139 249.012 157.765 249.012 159.601Z" fill="#D0DCE7"/>
<path d="M187.171 204.909C186.927 203.303 186.633 201.67 186.28 200.029C182.986 184.623 168.923 155.052 147.079 159.673C134.09 162.419 125.975 176.891 128.731 199.62C122.185 200.545 115.718 201.905 109.246 203.223C110.693 183.74 124.299 163.936 148.766 158.768C171.616 153.938 200.26 163.508 206.693 193.607C207.683 198.233 208.046 202.85 207.822 207.352C200.831 207.158 193.976 206.168 187.171 204.909Z" fill="#D0DCE7"/>
<path d="M462.576 193.61C463.512 197.993 463.884 202.37 463.735 206.649C456.666 205.818 449.701 204.405 442.736 202.983C442.567 202.002 442.373 201.023 442.164 200.033C438.871 184.626 424.802 155.055 402.962 159.676C389.674 162.482 381.491 177.556 384.819 201.182C378.207 202.436 371.641 203.903 365.024 205.097C365.711 185.024 379.397 164.11 404.649 158.772C427.494 153.941 456.144 163.512 462.576 193.61Z" fill="#D0DCE7"/>
<path d="M17.6225 199.349V145.342C17.6225 136.99 17.6225 131.483 7.17443 130.876C2.87216 130.467 0.00195312 130.467 0.00195312 127.412C0.00195312 124.557 0.822358 124.557 7.58342 124.557C10.6575 124.557 25.6129 125.373 28.8958 125.373C33.8109 125.373 57.3709 124.557 62.6999 124.557C96.5088 124.557 105.524 146.158 105.524 160.624C105.524 185.484 83.1918 196.697 66.3917 196.697C61.2678 196.697 56.9643 195.881 48.3573 192.821C47.1292 192.418 42.214 190.781 41.3875 190.781C39.5465 190.781 39.5465 191.801 39.5465 194.453V203.188C32.2684 201.891 24.9855 200.504 17.6225 199.349ZM39.5465 142.875V183.479C39.5465 187.638 39.5465 188.617 42.004 189.837C45.4859 192.041 51.4314 192.529 55.7349 192.529C66.7995 192.529 82.3702 183.957 82.3702 159.998C82.3702 138.477 68.8481 125.373 52.4569 125.373C40.572 125.373 39.5465 130.895 39.5465 142.875Z" fill="#D0DCE7"/>
<path d="M482.655 221.513C484.197 222.039 485.048 223.85 485.894 227.054C486.918 230.72 492.864 253.237 509.455 253.237C518.674 253.237 529.329 242.337 529.329 231.74C529.329 224.756 525.388 220.327 518.783 216.582C506.808 218.795 494.783 220.89 482.655 221.513ZM131.571 213.562C138.521 238.019 154.191 254.844 168.837 251.749C179.687 249.45 187.129 236.605 187.955 219.373C173.34 216.726 158.967 212.766 143.913 212.766C139.754 212.766 135.645 213.07 131.571 213.562ZM387.859 214.94C394.997 238.645 410.356 254.783 424.723 251.749C435.956 249.371 443.537 235.69 443.905 217.542C432.482 215.209 421.085 212.766 409.271 212.766C402.013 212.766 394.909 213.691 387.859 214.94ZM461.239 220.651C456.13 236.098 443.519 248.466 425.475 252.282C395.885 258.534 373.035 240.307 366.777 219.089C358.936 220.556 351.037 221.701 342.932 221.701C338.017 221.701 333.182 221.279 328.386 220.621V223.59C328.386 232.759 329.614 242.132 340.266 242.132C343.34 242.132 346.211 241.52 353.379 237.037C353.997 236.63 355.021 236.222 355.637 236.222C356.657 236.222 357.275 237.241 357.275 238.057C357.275 241.116 344.161 253.544 329.201 253.544C318.549 253.544 308.51 246.614 308.51 231.331V216.979C297.993 214.834 287.472 212.765 276.592 212.765C267.423 212.765 258.503 214.238 249.623 215.984V231.57C249.623 239.903 249.623 245.396 260.075 246.007C264.582 246.206 267.447 246.415 267.447 249.47C267.447 252.32 264.786 252.32 263.144 252.32C259.661 252.32 243.071 251.51 239.379 251.51C236.304 251.51 221.349 252.32 218.071 252.32C216.638 252.32 214.589 252.32 214.589 249.674C214.589 247.837 216.023 247.022 220.733 246.415C229.752 245.19 229.752 242.957 229.752 231.57V219.865C223.335 220.94 216.863 221.701 210.251 221.701C208.506 221.701 206.769 221.646 205.042 221.547C199.748 236.576 187.277 248.54 169.581 252.282C139.17 258.714 115.877 239.267 110.4 217.308C99.5956 219.516 88.7749 221.701 77.572 221.701C64.573 221.701 52.0509 219.791 39.5445 217.582V231.332C39.5445 239.889 39.5445 245.397 50.813 246.008C55.3203 246.207 58.1857 246.416 58.1857 249.471C58.1857 252.322 55.5242 252.322 53.8822 252.322C46.9173 252.322 35.8527 251.511 28.889 251.511C25.4059 251.511 8.19799 252.322 4.30349 252.322C2.66146 252.322 0 252.322 0 249.267C0 246.416 2.87021 246.207 7.17369 246.008C17.6217 245.187 17.6217 239.889 17.6217 231.537V213.723L17.6314 206.518C37.6549 209.647 57.0522 214.553 77.5732 214.553C100.194 214.553 121.246 205.623 143.912 205.623C166.578 205.623 187.631 214.553 210.251 214.553C232.871 214.553 253.925 205.623 276.591 205.623C299.256 205.623 320.309 214.553 342.93 214.553C365.55 214.553 386.604 205.623 409.268 205.623C431.934 205.623 452.988 214.564 475.608 214.553C497.855 214.548 518.735 208.772 540.51 205.544C542.176 207.504 543.565 209.687 544.565 212.135C545.55 214.678 546.127 217.527 546.127 220.736C546.127 236.019 533.63 253.545 506.586 253.545C494.293 253.545 481.588 248.45 480.771 247.839C478.313 246.614 478.313 244.988 478.313 240.098L478.721 225.014C478.721 224.512 478.86 222.367 480.378 221.611C478.79 221.671 477.199 221.701 475.607 221.701C470.76 221.701 465.975 221.293 461.239 220.651Z" fill="#769CBA"/>
<path d="M149.316 320.363C151.063 320.363 152.267 320.363 152.267 318.393C152.267 314.682 148.77 302.548 132.269 302.548C117.409 302.548 105.17 313.04 105.17 329.213C105.17 344.402 116.095 353.908 130.522 353.908C144.398 353.908 152.048 344.291 152.048 342.651C152.048 342.327 151.829 341.67 151.063 341.67C150.411 341.67 150.302 341.779 148.66 343.416C146.037 345.929 141.555 347.789 136.64 347.789C128.113 347.789 121.407 342.397 118.656 334.456C117.775 331.92 117.298 329.119 117.298 326.153C117.298 320.467 118.283 320.363 120.139 320.363H149.316ZM121.67 316.974C119.153 316.974 118.72 316.974 118.72 315.77C118.72 314.024 121.829 303.452 131.66 303.452C133.302 303.452 141.008 305.283 141.008 311.725C141.008 314.566 138.276 316.973 133.581 316.973H121.67V316.974Z" fill="#769CBA"/>
<path d="M237.267 338.612C237.267 347.681 235.959 352.785 225.9 352.785C209.513 352.785 199.459 335.985 199.459 320.035C199.459 305.285 209.076 285.281 225.9 285.281C237.925 285.281 242.182 294.684 243.934 297.962C244.699 299.489 245.571 300.474 246.555 300.474C247.212 300.474 247.868 299.927 247.868 298.509C247.868 297.524 246.883 288.783 245.57 287.47C244.803 286.704 238.361 284.083 228.197 284.083C199.128 284.083 185.686 303.535 185.686 319.598C185.686 330.196 192.791 353.91 223.386 353.91C226.226 353.91 236.608 353.91 246.554 348.338C249.723 346.696 249.723 346.368 249.723 341.453C249.723 335.225 249.394 331.509 249.394 330.414V329.324C249.394 324.623 249.613 322.876 254.861 322.549C257.806 322.329 258.901 322.001 258.901 320.797C258.901 319.489 257.593 319.489 257.155 319.489C255.513 319.489 245.021 319.927 243.275 319.927C235.957 319.927 232.892 319.489 231.036 319.489C226.664 319.489 226.121 319.489 226.121 320.907C226.121 322.001 226.993 322.438 230.38 322.549C235.191 322.658 237.265 323.638 237.265 329.106V338.612H237.267Z" fill="#769CBA"/>
<path d="M359.916 290.53C359.916 287.142 357.294 284.411 353.906 284.411C350.299 284.411 347.787 287.361 347.787 290.421C347.787 293.59 350.413 296.322 353.906 296.322C357.513 296.322 359.916 293.371 359.916 290.53Z" fill="#769CBA"/>
<path d="M288.612 318.713V314.21C288.612 310.395 287.835 303.036 282.199 303.036C275.796 303.036 274.449 305.271 274.438 307.276C274.592 308.544 275.17 310.051 275.12 311.648C275.045 314.3 274.428 315.966 272.573 317.518C270.464 319.289 266.3 320.488 263.399 317.031C261.364 314.608 261.628 311.743 263.061 309.374C264.996 305.593 270.379 301.573 284.911 302.454C296.158 303.136 300.242 310.747 300.242 315.214V340.909C300.242 344.286 300.6 347.013 303.958 347.013C305.276 347.013 306.475 346.575 307.436 345.923C308.754 344.943 308.875 344.833 309.47 344.833C310.191 344.833 310.551 345.485 310.551 345.813C310.551 348.431 303.237 353.548 297.964 353.548C293.288 353.548 291.009 350.28 289.572 347.664C288.492 345.594 288.254 345.594 287.891 345.594C287.652 345.594 287.055 346.032 287.055 346.032C282.015 349.739 277.722 353.097 272.33 353.097C271.062 353.097 260.296 353.972 260.296 341.063C260.296 328.81 276.504 322.631 285.613 322.631C288.731 322.633 288.612 320.673 288.612 318.713ZM288.612 335.245V324.474C288.612 323.385 287.443 322.987 286.846 322.987C285.164 322.987 281.657 323.857 279.737 324.733C274.757 327.365 270.722 331.206 270.722 337.906C270.722 345.651 276.682 348.284 279.318 348.284C288.408 348.284 288.612 342.871 288.612 335.245Z" fill="#769CBA"/>
<path d="M381.69 331.507C381.69 343.418 389.679 354.571 399.877 353.327C410.733 352.003 410.683 345.362 412.409 343.895C414.239 342.342 416.995 343.028 416.428 345.511C415.921 347.725 408.568 353.908 396.877 353.908C384.42 353.908 369.664 346.585 369.664 329.646C369.664 312.054 385.837 302.548 399.389 302.548C400.657 302.548 408.931 303.23 413.388 305.861C413.995 306.219 414.533 306.612 414.971 307.05C415.319 307.399 415.608 307.772 415.817 308.171C415.996 308.474 416.155 308.797 416.29 309.155C417.28 311.737 416.926 314.807 414.504 316.841C411.046 319.741 407.151 317.836 405.38 315.725C403.823 313.87 403.505 312.125 403.892 309.502C405.121 305.652 401.907 302.781 397.639 303.094C389.262 303.708 381.69 314.458 381.69 331.507Z" fill="#769CBA"/>
<path d="M478.621 318.713V314.21C478.621 310.395 477.84 303.036 472.203 303.036C465.805 303.036 464.453 305.271 464.447 307.276C464.596 308.544 465.178 310.051 465.129 311.648C465.054 314.3 464.437 315.966 462.582 317.518C460.472 319.289 456.304 320.488 453.403 317.031C451.374 314.608 451.632 311.743 453.064 309.374C455 305.593 460.387 301.573 474.914 302.454C486.162 303.136 490.247 310.747 490.247 315.214V340.909C490.247 344.286 490.605 347.013 493.963 347.013C495.281 347.013 496.48 346.575 497.44 345.923C498.764 344.943 498.879 344.833 499.48 344.833C500.203 344.833 500.561 345.485 500.561 345.813C500.561 348.431 493.247 353.548 487.969 353.548C483.293 353.548 481.019 350.28 479.582 347.664C478.497 345.594 478.258 345.594 477.9 345.594C477.661 345.594 477.059 346.032 477.059 346.032C472.025 349.739 467.731 353.097 462.334 353.097C461.069 353.097 450.305 353.972 450.305 341.063C450.305 328.81 466.508 322.631 475.622 322.631C478.735 322.633 478.621 320.673 478.621 318.713ZM478.621 335.245V324.474C478.621 323.385 477.452 322.987 476.85 322.987C475.174 322.987 471.662 323.857 469.747 324.733C464.766 327.365 460.732 331.206 460.732 337.906C460.732 345.651 466.692 348.284 469.329 348.284C478.412 348.284 478.621 342.871 478.621 335.245Z" fill="#769CBA"/>
<path d="M438.981 290.53C438.981 287.142 436.36 284.411 432.972 284.411C429.365 284.411 426.853 287.361 426.853 290.421C426.853 293.59 429.48 296.322 432.972 296.322C436.578 296.322 438.981 293.371 438.981 290.53Z" fill="#769CBA"/>
<path d="M104.274 345.8C104.274 345.471 103.916 344.816 103.195 344.816C102.593 344.816 102.479 344.925 101.155 345.91C100.195 346.562 98.9959 346.999 97.6779 346.999C94.9121 346.999 94.1803 345.143 94.0116 342.601V295.305L94.1463 286.643L94.5189 281.076C94.5189 280.107 93.8829 279.067 92.7883 279.067C92.5249 279.067 91.4096 279.012 90.7239 280.37C88.9532 284.961 84.4604 288.225 79.197 288.225L78.0173 288.279C76.709 288.608 76.3959 289.175 76.3959 289.931C76.3959 291.116 77.4858 291.115 77.8134 291.115C81.9567 291.329 83.3803 291.548 83.3803 298.339V303.991C83.3512 304.408 83.0623 304.827 82.6436 304.827C82.4252 304.827 81.7735 304.613 81.3354 304.394C79.4749 303.517 75.5391 302.532 72.0475 302.532C59.7002 302.532 45.6064 312.478 45.6064 329.411C45.6064 344.057 56.313 353.887 68.6603 353.887C74.8886 353.887 78.5999 351.157 81.555 348.754C81.9931 348.425 82.6448 347.988 83.0817 347.988C83.3512 347.988 83.6145 348.346 83.9179 348.725C85.3864 351.083 87.634 353.535 91.6839 353.535C96.9607 353.535 104.274 348.412 104.274 345.8ZM83.8463 319.582V341.546C83.8463 343.511 84.14 349.5 74.9614 349.5C64.1457 349.5 57.1856 338.481 57.1856 326.138C57.1856 311.821 65.2598 303.294 72.7963 303.294C83.8366 303.295 83.8463 314.662 83.8463 319.582Z" fill="#769CBA"/>
<path d="M338.41 351.924C338.41 350.944 337.862 350.398 335.132 350.069C330.43 349.412 330.43 348.208 330.43 342.089V303.922C330.435 303.922 330.44 303.922 330.445 303.922V299.535L330.629 287.581L331.002 282.014C331.002 281.044 330.365 280.004 329.275 280.004C329.007 280.004 327.892 279.95 327.206 281.308C325.435 285.9 320.942 289.162 315.683 289.162L314.505 289.217C313.197 289.546 312.878 290.112 312.878 290.869C312.878 292.053 313.972 292.053 314.295 292.053C318.329 292.262 319.758 292.58 319.832 298.848V342.198C319.832 348.208 319.832 349.412 315.13 350.069C312.727 350.398 311.852 350.83 311.852 351.815C311.852 353.238 312.947 353.238 314.26 353.238C316.554 353.238 317.862 352.799 325.076 352.799C331.413 352.799 333.598 353.238 336.547 353.238C337.315 353.239 338.41 353.239 338.41 351.924Z" fill="#769CBA"/>
<path d="M367.234 351.928C367.234 350.943 366.692 350.397 363.956 350.068C359.26 349.411 359.26 348.103 359.26 342.088V325.999C359.274 325.999 359.284 325.995 359.3 325.995V321.606L359.478 310.174C359.513 309.553 359.538 308.985 359.573 308.398L359.862 304.085C359.862 303.114 359.22 302.075 358.131 302.075C357.868 302.075 356.748 302.026 356.067 303.384C354.291 307.975 349.798 311.233 344.54 311.233L343.361 311.293C342.053 311.617 341.74 312.182 341.74 312.94C341.74 314.124 342.83 314.124 343.157 314.124C347.087 314.328 348.52 314.716 348.659 320.532V321.437V342.202C348.659 348.212 348.659 349.411 343.962 350.068C341.554 350.397 340.684 350.834 340.684 351.814C340.684 353.237 341.774 353.237 342.54 353.237C344.395 353.237 349.425 352.799 354.012 352.799C359.041 352.799 363.738 353.237 365.379 353.237C366.145 353.238 367.234 353.238 367.234 351.928Z" fill="#769CBA"/>
<path d="M446.184 351.928C446.184 350.943 445.641 350.397 442.906 350.068C438.21 349.411 438.21 348.103 438.21 342.088V325.999C438.225 325.999 438.235 325.995 438.25 325.995V321.606L438.429 310.174C438.464 309.553 438.488 308.985 438.524 308.398L438.812 304.085C438.812 303.114 438.175 302.075 437.081 302.075C436.817 302.075 435.703 302.026 435.016 303.384C433.239 307.975 428.748 311.233 423.489 311.233L422.311 311.293C421.003 311.617 420.689 312.182 420.689 312.94C420.689 314.124 421.779 314.124 422.107 314.124C426.037 314.328 427.47 314.716 427.608 320.532V321.437V342.202C427.608 348.212 427.608 349.411 422.913 350.068C420.505 350.397 419.635 350.834 419.635 351.814C419.635 353.237 420.723 353.237 421.49 353.237C423.351 353.237 428.375 352.799 432.962 352.799C437.991 352.799 442.687 353.237 444.328 353.237C445.094 353.238 446.184 353.238 446.184 351.928Z" fill="#769CBA"/>
</svg>
